<svg xmlns="http://www.w3.org/2000/svg" width="23.125" height="23.972" viewBox="0 0 23.125 23.972">
  <g id="logo" transform="translate(0)">
    <path id="Path_229" data-name="Path 229" d="M8228.019,11.849a22.878,22.878,0,0,0,0,4.117s1.89,7.41,3.343,9.3a23.42,23.42,0,0,1,3.244-2.712,15.644,15.644,0,0,1-2.663-8.185c2.663-1.937,14.238-2.422,18.452,2.47,1.163-3.342.389-4.989.389-4.989A22.3,22.3,0,0,0,8228.019,11.849Z" transform="translate(-8227.911 -8.728)" fill="#fff"/>
    <path id="Path_230" data-name="Path 230" d="M8239.287,30.478l-3.245,3s4.649,5.279,7.12,5.957,12.786-12.835,11.043-14.288a23.809,23.809,0,0,0-3.827-2.519s-.823,8.185-6.877,11.624C8241.709,33.578,8239.287,30.478,8239.287,30.478Z" transform="translate(-8231.866 -15.491)" fill="#fff"/>
  </g>
</svg>
