<svg id="headphones" xmlns="http://www.w3.org/2000/svg" width="69.114" height="78.636" viewBox="0 0 69.114 78.636">
  <g id="Group_116" data-name="Group 116" transform="translate(9.215 32.253)">
    <g id="Group_115" data-name="Group 115">
      <path id="Path_222" data-name="Path 222" d="M97.911,210A6.919,6.919,0,0,0,91,216.911v18.738a6.911,6.911,0,0,0,13.823,0V216.911A6.919,6.919,0,0,0,97.911,210Z" transform="translate(-91 -210)" fill="#222"/>
    </g>
  </g>
  <g id="Group_118" data-name="Group 118" transform="translate(0 37.224)">
    <g id="Group_117" data-name="Group 117">
      <path id="Path_223" data-name="Path 223" d="M35.608,244.306a11.429,11.429,0,0,1,.2-1.94,6.9,6.9,0,0,0-4.8,6.548v9.522a6.9,6.9,0,0,0,4.8,6.548,11.43,11.43,0,0,1-.2-1.94Z" transform="translate(-31 -242.366)" fill="#222"/>
    </g>
  </g>
  <g id="Group_120" data-name="Group 120" transform="translate(27.646 32.253)">
    <g id="Group_119" data-name="Group 119">
      <path id="Path_224" data-name="Path 224" d="M236.342,210a6.919,6.919,0,0,0-6.911,6.911v18.738a6.919,6.919,0,0,0,6.911,6.911,6.818,6.818,0,0,0,1.98-.324,6.9,6.9,0,0,1-6.588,4.931H224.4a6.911,6.911,0,1,0,0,4.608h7.336a11.532,11.532,0,0,0,11.519-11.519V216.911A6.919,6.919,0,0,0,236.342,210Z" transform="translate(-211 -210)" fill="#222"/>
    </g>
  </g>
  <g id="Group_122" data-name="Group 122" transform="translate(64.31 37.224)">
    <g id="Group_121" data-name="Group 121">
      <path id="Path_225" data-name="Path 225" d="M449.722,242.366a11.43,11.43,0,0,1,.2,1.94v18.737a11.431,11.431,0,0,1-.2,1.94,6.9,6.9,0,0,0,4.8-6.548v-9.522A6.9,6.9,0,0,0,449.722,242.366Z" transform="translate(-449.722 -242.366)" fill="#222"/>
    </g>
  </g>
  <g id="Group_124" data-name="Group 124" transform="translate(0)">
    <g id="Group_123" data-name="Group 123">
      <path id="Path_226" data-name="Path 226" d="M65.557,0A34.6,34.6,0,0,0,31,34.557v.059a11.408,11.408,0,0,1,4.713-2.14,29.914,29.914,0,0,1,59.688,0,11.412,11.412,0,0,1,4.713,2.14v-.059A34.6,34.6,0,0,0,65.557,0Z" transform="translate(-31)" fill="#222"/>
    </g>
  </g>
</svg>
